Coordinates
version=1
nRows=14
nColumns=33
inDegrees=yes

Units are S.I. units (second, meters, Newtons, ...)
Angles are in degrees.

endheader
time	ground_thorax_rot_x	ground_thorax_rot_y	ground_thorax_rot_z	ground_thorax_tx	ground_thorax_ty	ground_thorax_tz	clav_prot_r	clav_elev_r	scapula_abduction_r	scapula_elevation_r	scapula_upward_rot_r	scapula_winging_r	shoulder_elv_r	plane_of_elev_r	axial_rot_r	elbow_flexion_r	pro_sup_r	wrist_flex_r	wrist_dev_r	clav_prot_l	clav_elev_l	scapula_abduction_l	scapula_elevation_l	scapula_upward_rot_l	scapula_winging_l	shoulder_elv_l	plane_of_elev_l	axial_rot_l	elbow_flexion_l	pro_sup_l	wrist_flex_l	wrist_dev_l	
6.5900	38.735629	10.397043	15.038702	-225.316866	829.861355	10.576236	15.807435	38.008298	39.589154	45.000000	-44.951165	3512.222401	-3529.671663	29.205820	-132.337103	1440.715666	-213.931522	19.811300	10.970873	9.834577	-45.000000	-37.391537	45.000000	-40.578285	-2421.256416	-645.664401	22.373005	-29.197424	1810.089327	19.091606	7.346660	-22.091579	
6.6000	38.752231	10.339465	14.875292	-221.874609	829.592233	10.779461	15.941558	38.063250	39.848313	45.000000	-44.912326	3512.406907	-3529.115135	30.132533	-101.210875	1443.235610	-237.436226	19.747908	10.371969	9.766973	-45.000000	-37.633842	45.000000	-39.659160	-2421.482917	-645.727106	22.322452	-29.318402	1810.131072	17.710256	7.687126	-21.934457	
6.6100	38.765656	10.305808	14.742959	-218.233862	829.216938	10.993929	16.070361	38.127180	40.122352	45.000000	-44.843499	3512.571051	-3528.504761	31.254874	-63.501807	1446.413341	-265.686026	19.724522	9.654736	9.704420	-45.000000	-37.884357	45.000000	-38.723919	-2421.717070	-645.808363	22.262452	-29.474744	1810.163461	16.277800	8.053166	-21.752543	
6.6200	38.778026	10.290177	14.633173	-214.397946	828.712547	11.218769	16.186154	38.198538	40.401961	45.000000	-44.718128	3512.718515	-3527.991866	32.296522	-29.203373	1449.343056	-291.566634	19.713309	9.063180	9.658939	-45.000000	-38.136084	45.000000	-37.795101	-2421.966493	-645.917107	22.219853	-29.568029	1810.186799	15.077944	8.415493	-21.566264	
6.6300	38.792281	10.284565	14.538079	-210.371239	828.058094	11.452567	16.297144	38.291492	40.684562	44.999999	-44.499369	3512.857534	-3527.605728	33.210037	0.564919	1451.925250	-314.311633	19.708182	8.636630	9.612914	-45.000000	-38.385618	45.000000	-36.863538	-2422.235494	-646.052559	22.189781	-29.594024	1810.199554	14.124538	8.767798	-21.381554	
6.6400	38.810970	10.278976	14.441875	-206.159064	827.236036	11.693228	16.409479	38.411689	40.959622	44.999999	-44.162218	3512.996164	-3527.449927	33.780784	18.374613	1453.453656	-328.610969	19.673637	8.544515	9.565621	-45.000000	-38.631905	45.000000	-35.936295	-2422.531197	-646.220600	22.188591	-29.484180	1810.203524	13.592857	9.091171	-21.212412	
6.6500	38.834930	10.266998	14.336884	-201.768352	826.233133	11.937863	16.516833	38.565930	41.218079	44.999998	-43.689462	3513.142851	-3527.488722	34.052039	26.326067	1454.082069	-335.926669	19.603916	8.730012	9.511285	-45.000000	-38.882803	45.000000	-34.998486	-2422.853530	-646.422072	22.204600	-29.255927	1810.193784	13.395036	9.389190	-21.057105	
6.6600	38.861746	10.243684	14.220606	-197.207472	825.041218	12.182738	16.635505	38.748760	41.462147	44.999997	-43.113705	3513.308507	-3527.680008	34.066270	26.172826	1453.938030	-337.477872	19.488901	9.132128	9.439634	-45.000000	-39.135926	45.000000	-34.049504	-2423.202969	-646.657509	22.236992	-28.913609	1810.160855	13.478598	9.672878	-20.913782	
6.6700	38.888057	10.217100	14.105971	-192.486813	823.657746	12.423253	16.742477	38.944447	41.692719	44.999995	-42.470678	3513.488790	-3527.905326	34.062291	26.169211	1453.780936	-339.111509	19.345817	9.545198	9.367840	-45.000000	-39.396960	45.000000	-33.098286	-2423.569069	-646.928039	22.278745	-28.501634	1810.092848	13.650396	9.957491	-20.768433	
6.6800	38.908081	10.192232	14.001825	-187.617772	822.085930	12.654180	16.847825	39.142753	41.915682	44.999990	-41.815297	3513.683111	-3528.157110	34.052694	26.284134	1453.615004	-340.769853	19.173083	9.955697	9.298311	-45.000000	-39.665633	45.000000	-32.161228	-2423.946624	-647.233767	22.341330	-27.974449	1809.983208	13.970472	10.246581	-20.627886	
6.6900	38.919460	10.172834	13.914100	-182.614503	820.335140	12.869755	16.939970	39.340495	42.131594	44.999982	-41.170461	3513.885694	-3528.432367	34.046962	26.500283	1453.443769	-342.382053	18.977187	10.357109	9.241616	-45.000000	-39.948046	45.000000	-31.244282	-2424.329520	-647.576069	22.430154	-27.285677	1809.827615	14.489628	10.534427	-20.501762	
6.7000	38.921227	10.150112	13.838455	-177.494542	818.420820	13.064018	17.040062	39.532255	42.350561	44.999968	-40.562530	3514.105393	-3528.722577	34.041044	26.774556	1453.271497	-343.903415	18.763739	10.737409	9.186047	-45.000000	-40.236884	45.000000	-30.339945	-2424.717418	-647.954824	22.551399	-26.408451	1809.613082	15.255092	10.825980	-20.399447	
6.7100	38.914493	10.126046	13.777069	-172.282004	816.364750	13.230847	17.140154	39.720759	42.570774	44.999944	-39.984669	3514.336192	-3529.030391	34.036182	27.100977	1453.098369	-345.279386	18.540469	11.095146	9.134892	-45.000000	-40.534117	45.000000	-29.458299	-2425.109103	-648.365713	22.704197	-25.331376	1809.340943	16.278285	11.111455	-20.325776	
6.7200	38.901226	10.088284	13.714018	-167.006333	814.193733	13.364610	17.250503	39.902635	42.794979	44.999899	-39.430659	3514.587741	-3529.348616	34.023748	27.445524	1452.925895	-346.481932	18.313411	11.425160	9.082471	-45.000000	-40.837419	45.000000	-28.586098	-2425.503923	-648.804468	22.888488	-24.074943	1809.011494	17.557367	11.392067	-20.283762	
